<svg xmlns="http://www.w3.org/2000/svg" version="1.1" xmlns:xlink="http://www.w3.org/1999/xlink" xmlns:svgjs="http://svgjs.dev/svgjs" viewBox="0 0 800 800" opacity="1" width="800" height="800"><g stroke-width="0.5" stroke="hsl(261, 60%, 38%)" fill="none"><rect width="26.666666666666668" height="1" x="-13.333333333333334" y="-0.5" stroke="none" fill="hsl(261, 60%, 38%)" rx="0.5" transform="rotate(45, 0, 0)"></rect><rect width="1" height="26.666666666666668" x="-0.5" y="-13.333333333333334" stroke="none" fill="hsl(261, 60%, 38%)" rx="0.5" transform="rotate(45, 0, 0)"></rect><rect width="26.666666666666668" height="1" x="86.66666666666667" y="-0.5" stroke="none" fill="hsl(261, 60%, 38%)" rx="0.5" transform="rotate(45, 100, 0)"></rect><rect width="1" height="26.666666666666668" x="99.5" y="-13.333333333333334" stroke="none" fill="hsl(261, 60%, 38%)" rx="0.5" transform="rotate(45, 100, 0)"></rect><rect width="26.666666666666668" height="1" x="186.66666666666666" y="-0.5" stroke="none" fill="hsl(261, 60%, 38%)" rx="0.5" transform="rotate(45, 200, 0)"></rect><rect width="1" height="26.666666666666668" x="199.5" y="-13.333333333333334" stroke="none" fill="hsl(261, 60%, 38%)" rx="0.5" transform="rotate(45, 200, 0)"></rect><rect width="26.666666666666668" height="1" x="286.6666666666667" y="-0.5" stroke="none" fill="hsl(261, 60%, 38%)" rx="0.5" transform="rotate(45, 300, 0)"></rect><rect width="1" height="26.666666666666668" x="299.5" y="-13.333333333333334" stroke="none" fill="hsl(261, 60%, 38%)" rx="0.5" transform="rotate(45, 300, 0)"></rect><rect width="26.666666666666668" height="1" x="386.6666666666667" y="-0.5" stroke="none" fill="hsl(261, 60%, 38%)" rx="0.5" transform="rotate(45, 400, 0)"></rect><rect width="1" height="26.666666666666668" x="399.5" y="-13.333333333333334" stroke="none" fill="hsl(261, 60%, 38%)" rx="0.5" transform="rotate(45, 400, 0)"></rect><rect width="26.666666666666668" height="1" x="486.6666666666667" y="-0.5" stroke="none" fill="hsl(261, 60%, 38%)" rx="0.5" transform="rotate(45, 500, 0)"></rect><rect width="1" height="26.666666666666668" x="499.5" y="-13.333333333333334" stroke="none" fill="hsl(261, 60%, 38%)" rx="0.5" transform="rotate(45, 500, 0)"></rect><rect width="26.666666666666668" height="1" x="586.6666666666666" y="-0.5" stroke="none" fill="hsl(261, 60%, 38%)" rx="0.5" transform="rotate(45, 600, 0)"></rect><rect width="1" height="26.666666666666668" x="599.5" y="-13.333333333333334" stroke="none" fill="hsl(261, 60%, 38%)" rx="0.5" transform="rotate(45, 600, 0)"></rect><rect width="26.666666666666668" height="1" x="686.6666666666666" y="-0.5" stroke="none" fill="hsl(261, 60%, 38%)" rx="0.5" transform="rotate(45, 700, 0)"></rect><rect width="1" height="26.666666666666668" x="699.5" y="-13.333333333333334" stroke="none" fill="hsl(261, 60%, 38%)" rx="0.5" transform="rotate(45, 700, 0)"></rect><rect width="26.666666666666668" height="1" x="786.6666666666666" y="-0.5" stroke="none" fill="hsl(261, 60%, 38%)" rx="0.5" transform="rotate(45, 800, 0)"></rect><rect width="1" height="26.666666666666668" x="799.5" y="-13.333333333333334" stroke="none" fill="hsl(261, 60%, 38%)" rx="0.5" transform="rotate(45, 800, 0)"></rect><rect width="26.666666666666668" height="1" x="-13.333333333333334" y="52.833333333333336" stroke="none" fill="hsl(261, 60%, 38%)" rx="0.5" transform="rotate(45, 0, 53.333333333333336)"></rect><rect width="1" height="26.666666666666668" x="-0.5" y="40" stroke="none" fill="hsl(261, 60%, 38%)" rx="0.5" transform="rotate(45, 0, 53.333333333333336)"></rect><rect width="26.666666666666668" height="1" x="86.66666666666667" y="52.833333333333336" stroke="none" fill="hsl(261, 60%, 38%)" rx="0.5" transform="rotate(45, 100, 53.333333333333336)"></rect><rect width="1" height="26.666666666666668" x="99.5" y="40" stroke="none" fill="hsl(261, 60%, 38%)" rx="0.5" transform="rotate(45, 100, 53.333333333333336)"></rect><rect width="26.666666666666668" height="1" x="186.66666666666666" y="52.833333333333336" stroke="none" fill="hsl(261, 60%, 38%)" rx="0.5" transform="rotate(45, 200, 53.333333333333336)"></rect><rect width="1" height="26.666666666666668" x="199.5" y="40" stroke="none" fill="hsl(261, 60%, 38%)" rx="0.5" transform="rotate(45, 200, 53.333333333333336)"></rect><rect width="26.666666666666668" height="1" x="286.6666666666667" y="52.833333333333336" stroke="none" fill="hsl(261, 60%, 38%)" rx="0.5" transform="rotate(45, 300, 53.333333333333336)"></rect><rect width="1" height="26.666666666666668" x="299.5" y="40" stroke="none" fill="hsl(261, 60%, 38%)" rx="0.5" transform="rotate(45, 300, 53.333333333333336)"></rect><rect width="26.666666666666668" height="1" x="386.6666666666667" y="52.833333333333336" stroke="none" fill="hsl(261, 60%, 38%)" rx="0.5" transform="rotate(45, 400, 53.333333333333336)"></rect><rect width="1" height="26.666666666666668" x="399.5" y="40" stroke="none" fill="hsl(261, 60%, 38%)" rx="0.5" transform="rotate(45, 400, 53.333333333333336)"></rect><rect width="26.666666666666668" height="1" x="486.6666666666667" y="52.833333333333336" stroke="none" fill="hsl(261, 60%, 38%)" rx="0.5" transform="rotate(45, 500, 53.333333333333336)"></rect><rect width="1" height="26.666666666666668" x="499.5" y="40" stroke="none" fill="hsl(261, 60%, 38%)" rx="0.5" transform="rotate(45, 500, 53.333333333333336)"></rect><rect width="26.666666666666668" height="1" x="586.6666666666666" y="52.833333333333336" stroke="none" fill="hsl(261, 60%, 38%)" rx="0.5" transform="rotate(45, 600, 53.333333333333336)"></rect><rect width="1" height="26.666666666666668" x="599.5" y="40" stroke="none" fill="hsl(261, 60%, 38%)" rx="0.5" transform="rotate(45, 600, 53.333333333333336)"></rect><rect width="26.666666666666668" height="1" x="686.6666666666666" y="52.833333333333336" stroke="none" fill="hsl(261, 60%, 38%)" rx="0.5" transform="rotate(45, 700, 53.333333333333336)"></rect><rect width="1" height="26.666666666666668" x="699.5" y="40" stroke="none" fill="hsl(261, 60%, 38%)" rx="0.5" transform="rotate(45, 700, 53.333333333333336)"></rect><rect width="26.666666666666668" height="1" x="786.6666666666666" y="52.833333333333336" stroke="none" fill="hsl(261, 60%, 38%)" rx="0.5" transform="rotate(45, 800, 53.333333333333336)"></rect><rect width="1" height="26.666666666666668" x="799.5" y="40" stroke="none" fill="hsl(261, 60%, 38%)" rx="0.5" transform="rotate(45, 800, 53.333333333333336)"></rect><rect width="26.666666666666668" height="1" x="-13.333333333333334" y="106.16666666666667" stroke="none" fill="hsl(261, 60%, 38%)" rx="0.5" transform="rotate(45, 0, 106.66666666666667)"></rect><rect width="1" height="26.666666666666668" x="-0.5" y="93.33333333333334" stroke="none" fill="hsl(261, 60%, 38%)" rx="0.5" transform="rotate(45, 0, 106.66666666666667)"></rect><rect width="26.666666666666668" height="1" x="86.66666666666667" y="106.16666666666667" stroke="none" fill="hsl(261, 60%, 38%)" rx="0.5" transform="rotate(45, 100, 106.66666666666667)"></rect><rect width="1" height="26.666666666666668" x="99.5" y="93.33333333333334" stroke="none" fill="hsl(261, 60%, 38%)" rx="0.5" transform="rotate(45, 100, 106.66666666666667)"></rect><rect width="26.666666666666668" height="1" x="186.66666666666666" y="106.16666666666667" stroke="none" fill="hsl(261, 60%, 38%)" rx="0.5" transform="rotate(45, 200, 106.66666666666667)"></rect><rect width="1" height="26.666666666666668" x="199.5" y="93.33333333333334" stroke="none" fill="hsl(261, 60%, 38%)" rx="0.5" transform="rotate(45, 200, 106.66666666666667)"></rect><rect width="26.666666666666668" height="1" x="286.6666666666667" y="106.16666666666667" stroke="none" fill="hsl(261, 60%, 38%)" rx="0.5" transform="rotate(45, 300, 106.66666666666667)"></rect><rect width="1" height="26.666666666666668" x="299.5" y="93.33333333333334" stroke="none" fill="hsl(261, 60%, 38%)" rx="0.5" transform="rotate(45, 300, 106.66666666666667)"></rect><rect width="26.666666666666668" height="1" x="386.6666666666667" y="106.16666666666667" stroke="none" fill="hsl(261, 60%, 38%)" rx="0.5" transform="rotate(45, 400, 106.66666666666667)"></rect><rect width="1" height="26.666666666666668" x="399.5" y="93.33333333333334" stroke="none" fill="hsl(261, 60%, 38%)" rx="0.5" transform="rotate(45, 400, 106.66666666666667)"></rect><rect width="26.666666666666668" height="1" x="486.6666666666667" y="106.16666666666667" stroke="none" fill="hsl(261, 60%, 38%)" rx="0.5" transform="rotate(45, 500, 106.66666666666667)"></rect><rect width="1" height="26.666666666666668" x="499.5" y="93.33333333333334" stroke="none" fill="hsl(261, 60%, 38%)" rx="0.5" transform="rotate(45, 500, 106.66666666666667)"></rect><rect width="26.666666666666668" height="1" x="586.6666666666666" y="106.16666666666667" stroke="none" fill="hsl(261, 60%, 38%)" rx="0.5" transform="rotate(45, 600, 106.66666666666667)"></rect><rect width="1" height="26.666666666666668" x="599.5" y="93.33333333333334" stroke="none" fill="hsl(261, 60%, 38%)" rx="0.5" transform="rotate(45, 600, 106.66666666666667)"></rect><rect width="26.666666666666668" height="1" x="686.6666666666666" y="106.16666666666667" stroke="none" fill="hsl(261, 60%, 38%)" rx="0.5" transform="rotate(45, 700, 106.66666666666667)"></rect><rect width="1" height="26.666666666666668" x="699.5" y="93.33333333333334" stroke="none" fill="hsl(261, 60%, 38%)" rx="0.5" transform="rotate(45, 700, 106.66666666666667)"></rect><rect width="26.666666666666668" height="1" x="786.6666666666666" y="106.16666666666667" stroke="none" fill="hsl(261, 60%, 38%)" rx="0.5" transform="rotate(45, 800, 106.66666666666667)"></rect><rect width="1" height="26.666666666666668" x="799.5" y="93.33333333333334" stroke="none" fill="hsl(261, 60%, 38%)" rx="0.5" transform="rotate(45, 800, 106.66666666666667)"></rect><rect width="26.666666666666668" height="1" x="-13.333333333333334" y="159.5" stroke="none" fill="hsl(261, 60%, 38%)" rx="0.5" transform="rotate(45, 0, 160)"></rect><rect width="1" height="26.666666666666668" x="-0.5" y="146.66666666666666" stroke="none" fill="hsl(261, 60%, 38%)" rx="0.5" transform="rotate(45, 0, 160)"></rect><rect width="26.666666666666668" height="1" x="86.66666666666667" y="159.5" stroke="none" fill="hsl(261, 60%, 38%)" rx="0.5" transform="rotate(45, 100, 160)"></rect><rect width="1" height="26.666666666666668" x="99.5" y="146.66666666666666" stroke="none" fill="hsl(261, 60%, 38%)" rx="0.5" transform="rotate(45, 100, 160)"></rect><rect width="26.666666666666668" height="1" x="186.66666666666666" y="159.5" stroke="none" fill="hsl(261, 60%, 38%)" rx="0.5" transform="rotate(45, 200, 160)"></rect><rect width="1" height="26.666666666666668" x="199.5" y="146.66666666666666" stroke="none" fill="hsl(261, 60%, 38%)" rx="0.5" transform="rotate(45, 200, 160)"></rect><rect width="26.666666666666668" height="1" x="286.6666666666667" y="159.5" stroke="none" fill="hsl(261, 60%, 38%)" rx="0.5" transform="rotate(45, 300, 160)"></rect><rect width="1" height="26.666666666666668" x="299.5" y="146.66666666666666" stroke="none" fill="hsl(261, 60%, 38%)" rx="0.5" transform="rotate(45, 300, 160)"></rect><rect width="26.666666666666668" height="1" x="386.6666666666667" y="159.5" stroke="none" fill="hsl(261, 60%, 38%)" rx="0.5" transform="rotate(45, 400, 160)"></rect><rect width="1" height="26.666666666666668" x="399.5" y="146.66666666666666" stroke="none" fill="hsl(261, 60%, 38%)" rx="0.5" transform="rotate(45, 400, 160)"></rect><rect width="26.666666666666668" height="1" x="486.6666666666667" y="159.5" stroke="none" fill="hsl(261, 60%, 38%)" rx="0.5" transform="rotate(45, 500, 160)"></rect><rect width="1" height="26.666666666666668" x="499.5" y="146.66666666666666" stroke="none" fill="hsl(261, 60%, 38%)" rx="0.5" transform="rotate(45, 500, 160)"></rect><rect width="26.666666666666668" height="1" x="586.6666666666666" y="159.5" stroke="none" fill="hsl(261, 60%, 38%)" rx="0.5" transform="rotate(45, 600, 160)"></rect><rect width="1" height="26.666666666666668" x="599.5" y="146.66666666666666" stroke="none" fill="hsl(261, 60%, 38%)" rx="0.5" transform="rotate(45, 600, 160)"></rect><rect width="26.666666666666668" height="1" x="686.6666666666666" y="159.5" stroke="none" fill="hsl(261, 60%, 38%)" rx="0.5" transform="rotate(45, 700, 160)"></rect><rect width="1" height="26.666666666666668" x="699.5" y="146.66666666666666" stroke="none" fill="hsl(261, 60%, 38%)" rx="0.5" transform="rotate(45, 700, 160)"></rect><rect width="26.666666666666668" height="1" x="786.6666666666666" y="159.5" stroke="none" fill="hsl(261, 60%, 38%)" rx="0.5" transform="rotate(45, 800, 160)"></rect><rect width="1" height="26.666666666666668" x="799.5" y="146.66666666666666" stroke="none" fill="hsl(261, 60%, 38%)" rx="0.5" transform="rotate(45, 800, 160)"></rect><rect width="26.666666666666668" height="1" x="-13.333333333333334" y="212.83333333333334" stroke="none" fill="hsl(261, 60%, 38%)" rx="0.5" transform="rotate(45, 0, 213.33333333333334)"></rect><rect width="1" height="26.666666666666668" x="-0.5" y="200" stroke="none" fill="hsl(261, 60%, 38%)" rx="0.5" transform="rotate(45, 0, 213.33333333333334)"></rect><rect width="26.666666666666668" height="1" x="86.66666666666667" y="212.83333333333334" stroke="none" fill="hsl(261, 60%, 38%)" rx="0.5" transform="rotate(45, 100, 213.33333333333334)"></rect><rect width="1" height="26.666666666666668" x="99.5" y="200" stroke="none" fill="hsl(261, 60%, 38%)" rx="0.5" transform="rotate(45, 100, 213.33333333333334)"></rect><rect width="26.666666666666668" height="1" x="186.66666666666666" y="212.83333333333334" stroke="none" fill="hsl(261, 60%, 38%)" rx="0.5" transform="rotate(45, 200, 213.33333333333334)"></rect><rect width="1" height="26.666666666666668" x="199.5" y="200" stroke="none" fill="hsl(261, 60%, 38%)" rx="0.5" transform="rotate(45, 200, 213.33333333333334)"></rect><rect width="26.666666666666668" height="1" x="286.6666666666667" y="212.83333333333334" stroke="none" fill="hsl(261, 60%, 38%)" rx="0.5" transform="rotate(45, 300, 213.33333333333334)"></rect><rect width="1" height="26.666666666666668" x="299.5" y="200" stroke="none" fill="hsl(261, 60%, 38%)" rx="0.5" transform="rotate(45, 300, 213.33333333333334)"></rect><rect width="26.666666666666668" height="1" x="386.6666666666667" y="212.83333333333334" stroke="none" fill="hsl(261, 60%, 38%)" rx="0.5" transform="rotate(45, 400, 213.33333333333334)"></rect><rect width="1" height="26.666666666666668" x="399.5" y="200" stroke="none" fill="hsl(261, 60%, 38%)" rx="0.5" transform="rotate(45, 400, 213.33333333333334)"></rect><rect width="26.666666666666668" height="1" x="486.6666666666667" y="212.83333333333334" stroke="none" fill="hsl(261, 60%, 38%)" rx="0.5" transform="rotate(45, 500, 213.33333333333334)"></rect><rect width="1" height="26.666666666666668" x="499.5" y="200" stroke="none" fill="hsl(261, 60%, 38%)" rx="0.5" transform="rotate(45, 500, 213.33333333333334)"></rect><rect width="26.666666666666668" height="1" x="586.6666666666666" y="212.83333333333334" stroke="none" fill="hsl(261, 60%, 38%)" rx="0.5" transform="rotate(45, 600, 213.33333333333334)"></rect><rect width="1" height="26.666666666666668" x="599.5" y="200" stroke="none" fill="hsl(261, 60%, 38%)" rx="0.5" transform="rotate(45, 600, 213.33333333333334)"></rect><rect width="26.666666666666668" height="1" x="686.6666666666666" y="212.83333333333334" stroke="none" fill="hsl(261, 60%, 38%)" rx="0.5" transform="rotate(45, 700, 213.33333333333334)"></rect><rect width="1" height="26.666666666666668" x="699.5" y="200" stroke="none" fill="hsl(261, 60%, 38%)" rx="0.5" transform="rotate(45, 700, 213.33333333333334)"></rect><rect width="26.666666666666668" height="1" x="786.6666666666666" y="212.83333333333334" stroke="none" fill="hsl(261, 60%, 38%)" rx="0.5" transform="rotate(45, 800, 213.33333333333334)"></rect><rect width="1" height="26.666666666666668" x="799.5" y="200" stroke="none" fill="hsl(261, 60%, 38%)" rx="0.5" transform="rotate(45, 800, 213.33333333333334)"></rect><rect width="26.666666666666668" height="1" x="-13.333333333333334" y="266.1666666666667" stroke="none" fill="hsl(261, 60%, 38%)" rx="0.5" transform="rotate(45, 0, 266.6666666666667)"></rect><rect width="1" height="26.666666666666668" x="-0.5" y="253.33333333333334" stroke="none" fill="hsl(261, 60%, 38%)" rx="0.5" transform="rotate(45, 0, 266.6666666666667)"></rect><rect width="26.666666666666668" height="1" x="86.66666666666667" y="266.1666666666667" stroke="none" fill="hsl(261, 60%, 38%)" rx="0.5" transform="rotate(45, 100, 266.6666666666667)"></rect><rect width="1" height="26.666666666666668" x="99.5" y="253.33333333333334" stroke="none" fill="hsl(261, 60%, 38%)" rx="0.5" transform="rotate(45, 100, 266.6666666666667)"></rect><rect width="26.666666666666668" height="1" x="186.66666666666666" y="266.1666666666667" stroke="none" fill="hsl(261, 60%, 38%)" rx="0.5" transform="rotate(45, 200, 266.6666666666667)"></rect><rect width="1" height="26.666666666666668" x="199.5" y="253.33333333333334" stroke="none" fill="hsl(261, 60%, 38%)" rx="0.5" transform="rotate(45, 200, 266.6666666666667)"></rect><rect width="26.666666666666668" height="1" x="286.6666666666667" y="266.1666666666667" stroke="none" fill="hsl(261, 60%, 38%)" rx="0.5" transform="rotate(45, 300, 266.6666666666667)"></rect><rect width="1" height="26.666666666666668" x="299.5" y="253.33333333333334" stroke="none" fill="hsl(261, 60%, 38%)" rx="0.5" transform="rotate(45, 300, 266.6666666666667)"></rect><rect width="26.666666666666668" height="1" x="386.6666666666667" y="266.1666666666667" stroke="none" fill="hsl(261, 60%, 38%)" rx="0.5" transform="rotate(45, 400, 266.6666666666667)"></rect><rect width="1" height="26.666666666666668" x="399.5" y="253.33333333333334" stroke="none" fill="hsl(261, 60%, 38%)" rx="0.5" transform="rotate(45, 400, 266.6666666666667)"></rect><rect width="26.666666666666668" height="1" x="486.6666666666667" y="266.1666666666667" stroke="none" fill="hsl(261, 60%, 38%)" rx="0.5" transform="rotate(45, 500, 266.6666666666667)"></rect><rect width="1" height="26.666666666666668" x="499.5" y="253.33333333333334" stroke="none" fill="hsl(261, 60%, 38%)" rx="0.5" transform="rotate(45, 500, 266.6666666666667)"></rect><rect width="26.666666666666668" height="1" x="586.6666666666666" y="266.1666666666667" stroke="none" fill="hsl(261, 60%, 38%)" rx="0.5" transform="rotate(45, 600, 266.6666666666667)"></rect><rect width="1" height="26.666666666666668" x="599.5" y="253.33333333333334" stroke="none" fill="hsl(261, 60%, 38%)" rx="0.5" transform="rotate(45, 600, 266.6666666666667)"></rect><rect width="26.666666666666668" height="1" x="686.6666666666666" y="266.1666666666667" stroke="none" fill="hsl(261, 60%, 38%)" rx="0.5" transform="rotate(45, 700, 266.6666666666667)"></rect><rect width="1" height="26.666666666666668" x="699.5" y="253.33333333333334" stroke="none" fill="hsl(261, 60%, 38%)" rx="0.5" transform="rotate(45, 700, 266.6666666666667)"></rect><rect width="26.666666666666668" height="1" x="786.6666666666666" y="266.1666666666667" stroke="none" fill="hsl(261, 60%, 38%)" rx="0.5" transform="rotate(45, 800, 266.6666666666667)"></rect><rect width="1" height="26.666666666666668" x="799.5" y="253.33333333333334" stroke="none" fill="hsl(261, 60%, 38%)" rx="0.5" transform="rotate(45, 800, 266.6666666666667)"></rect><rect width="26.666666666666668" height="1" x="-13.333333333333334" y="319.5" stroke="none" fill="hsl(261, 60%, 38%)" rx="0.5" transform="rotate(45, 0, 320)"></rect><rect width="1" height="26.666666666666668" x="-0.5" y="306.6666666666667" stroke="none" fill="hsl(261, 60%, 38%)" rx="0.5" transform="rotate(45, 0, 320)"></rect><rect width="26.666666666666668" height="1" x="86.66666666666667" y="319.5" stroke="none" fill="hsl(261, 60%, 38%)" rx="0.5" transform="rotate(45, 100, 320)"></rect><rect width="1" height="26.666666666666668" x="99.5" y="306.6666666666667" stroke="none" fill="hsl(261, 60%, 38%)" rx="0.5" transform="rotate(45, 100, 320)"></rect><rect width="26.666666666666668" height="1" x="186.66666666666666" y="319.5" stroke="none" fill="hsl(261, 60%, 38%)" rx="0.5" transform="rotate(45, 200, 320)"></rect><rect width="1" height="26.666666666666668" x="199.5" y="306.6666666666667" stroke="none" fill="hsl(261, 60%, 38%)" rx="0.5" transform="rotate(45, 200, 320)"></rect><rect width="26.666666666666668" height="1" x="286.6666666666667" y="319.5" stroke="none" fill="hsl(261, 60%, 38%)" rx="0.5" transform="rotate(45, 300, 320)"></rect><rect width="1" height="26.666666666666668" x="299.5" y="306.6666666666667" stroke="none" fill="hsl(261, 60%, 38%)" rx="0.5" transform="rotate(45, 300, 320)"></rect><rect width="26.666666666666668" height="1" x="386.6666666666667" y="319.5" stroke="none" fill="hsl(261, 60%, 38%)" rx="0.5" transform="rotate(45, 400, 320)"></rect><rect width="1" height="26.666666666666668" x="399.5" y="306.6666666666667" stroke="none" fill="hsl(261, 60%, 38%)" rx="0.5" transform="rotate(45, 400, 320)"></rect><rect width="26.666666666666668" height="1" x="486.6666666666667" y="319.5" stroke="none" fill="hsl(261, 60%, 38%)" rx="0.5" transform="rotate(45, 500, 320)"></rect><rect width="1" height="26.666666666666668" x="499.5" y="306.6666666666667" stroke="none" fill="hsl(261, 60%, 38%)" rx="0.5" transform="rotate(45, 500, 320)"></rect><rect width="26.666666666666668" height="1" x="586.6666666666666" y="319.5" stroke="none" fill="hsl(261, 60%, 38%)" rx="0.5" transform="rotate(45, 600, 320)"></rect><rect width="1" height="26.666666666666668" x="599.5" y="306.6666666666667" stroke="none" fill="hsl(261, 60%, 38%)" rx="0.5" transform="rotate(45, 600, 320)"></rect><rect width="26.666666666666668" height="1" x="686.6666666666666" y="319.5" stroke="none" fill="hsl(261, 60%, 38%)" rx="0.5" transform="rotate(45, 700, 320)"></rect><rect width="1" height="26.666666666666668" x="699.5" y="306.6666666666667" stroke="none" fill="hsl(261, 60%, 38%)" rx="0.5" transform="rotate(45, 700, 320)"></rect><rect width="26.666666666666668" height="1" x="786.6666666666666" y="319.5" stroke="none" fill="hsl(261, 60%, 38%)" rx="0.5" transform="rotate(45, 800, 320)"></rect><rect width="1" height="26.666666666666668" x="799.5" y="306.6666666666667" stroke="none" fill="hsl(261, 60%, 38%)" rx="0.5" transform="rotate(45, 800, 320)"></rect><rect width="26.666666666666668" height="1" x="-13.333333333333334" y="372.8333333333333" stroke="none" fill="hsl(261, 60%, 38%)" rx="0.5" transform="rotate(45, 0, 373.3333333333333)"></rect><rect width="1" height="26.666666666666668" x="-0.5" y="360" stroke="none" fill="hsl(261, 60%, 38%)" rx="0.5" transform="rotate(45, 0, 373.3333333333333)"></rect><rect width="26.666666666666668" height="1" x="86.66666666666667" y="372.8333333333333" stroke="none" fill="hsl(261, 60%, 38%)" rx="0.5" transform="rotate(45, 100, 373.3333333333333)"></rect><rect width="1" height="26.666666666666668" x="99.5" y="360" stroke="none" fill="hsl(261, 60%, 38%)" rx="0.5" transform="rotate(45, 100, 373.3333333333333)"></rect><rect width="26.666666666666668" height="1" x="186.66666666666666" y="372.8333333333333" stroke="none" fill="hsl(261, 60%, 38%)" rx="0.5" transform="rotate(45, 200, 373.3333333333333)"></rect><rect width="1" height="26.666666666666668" x="199.5" y="360" stroke="none" fill="hsl(261, 60%, 38%)" rx="0.5" transform="rotate(45, 200, 373.3333333333333)"></rect><rect width="26.666666666666668" height="1" x="286.6666666666667" y="372.8333333333333" stroke="none" fill="hsl(261, 60%, 38%)" rx="0.5" transform="rotate(45, 300, 373.3333333333333)"></rect><rect width="1" height="26.666666666666668" x="299.5" y="360" stroke="none" fill="hsl(261, 60%, 38%)" rx="0.5" transform="rotate(45, 300, 373.3333333333333)"></rect><rect width="26.666666666666668" height="1" x="386.6666666666667" y="372.8333333333333" stroke="none" fill="hsl(261, 60%, 38%)" rx="0.5" transform="rotate(45, 400, 373.3333333333333)"></rect><rect width="1" height="26.666666666666668" x="399.5" y="360" stroke="none" fill="hsl(261, 60%, 38%)" rx="0.5" transform="rotate(45, 400, 373.3333333333333)"></rect><rect width="26.666666666666668" height="1" x="486.6666666666667" y="372.8333333333333" stroke="none" fill="hsl(261, 60%, 38%)" rx="0.5" transform="rotate(45, 500, 373.3333333333333)"></rect><rect width="1" height="26.666666666666668" x="499.5" y="360" stroke="none" fill="hsl(261, 60%, 38%)" rx="0.5" transform="rotate(45, 500, 373.3333333333333)"></rect><rect width="26.666666666666668" height="1" x="586.6666666666666" y="372.8333333333333" stroke="none" fill="hsl(261, 60%, 38%)" rx="0.5" transform="rotate(45, 600, 373.3333333333333)"></rect><rect width="1" height="26.666666666666668" x="599.5" y="360" stroke="none" fill="hsl(261, 60%, 38%)" rx="0.5" transform="rotate(45, 600, 373.3333333333333)"></rect><rect width="26.666666666666668" height="1" x="686.6666666666666" y="372.8333333333333" stroke="none" fill="hsl(261, 60%, 38%)" rx="0.5" transform="rotate(45, 700, 373.3333333333333)"></rect><rect width="1" height="26.666666666666668" x="699.5" y="360" stroke="none" fill="hsl(261, 60%, 38%)" rx="0.5" transform="rotate(45, 700, 373.3333333333333)"></rect><rect width="26.666666666666668" height="1" x="786.6666666666666" y="372.8333333333333" stroke="none" fill="hsl(261, 60%, 38%)" rx="0.5" transform="rotate(45, 800, 373.3333333333333)"></rect><rect width="1" height="26.666666666666668" x="799.5" y="360" stroke="none" fill="hsl(261, 60%, 38%)" rx="0.5" transform="rotate(45, 800, 373.3333333333333)"></rect><rect width="26.666666666666668" height="1" x="-13.333333333333334" y="426.16666666666663" stroke="none" fill="hsl(261, 60%, 38%)" rx="0.5" transform="rotate(45, 0, 426.66666666666663)"></rect><rect width="1" height="26.666666666666668" x="-0.5" y="413.3333333333333" stroke="none" fill="hsl(261, 60%, 38%)" rx="0.5" transform="rotate(45, 0, 426.66666666666663)"></rect><rect width="26.666666666666668" height="1" x="86.66666666666667" y="426.16666666666663" stroke="none" fill="hsl(261, 60%, 38%)" rx="0.5" transform="rotate(45, 100, 426.66666666666663)"></rect><rect width="1" height="26.666666666666668" x="99.5" y="413.3333333333333" stroke="none" fill="hsl(261, 60%, 38%)" rx="0.5" transform="rotate(45, 100, 426.66666666666663)"></rect><rect width="26.666666666666668" height="1" x="186.66666666666666" y="426.16666666666663" stroke="none" fill="hsl(261, 60%, 38%)" rx="0.5" transform="rotate(45, 200, 426.66666666666663)"></rect><rect width="1" height="26.666666666666668" x="199.5" y="413.3333333333333" stroke="none" fill="hsl(261, 60%, 38%)" rx="0.5" transform="rotate(45, 200, 426.66666666666663)"></rect><rect width="26.666666666666668" height="1" x="286.6666666666667" y="426.16666666666663" stroke="none" fill="hsl(261, 60%, 38%)" rx="0.5" transform="rotate(45, 300, 426.66666666666663)"></rect><rect width="1" height="26.666666666666668" x="299.5" y="413.3333333333333" stroke="none" fill="hsl(261, 60%, 38%)" rx="0.5" transform="rotate(45, 300, 426.66666666666663)"></rect><rect width="26.666666666666668" height="1" x="386.6666666666667" y="426.16666666666663" stroke="none" fill="hsl(261, 60%, 38%)" rx="0.5" transform="rotate(45, 400, 426.66666666666663)"></rect><rect width="1" height="26.666666666666668" x="399.5" y="413.3333333333333" stroke="none" fill="hsl(261, 60%, 38%)" rx="0.5" transform="rotate(45, 400, 426.66666666666663)"></rect><rect width="26.666666666666668" height="1" x="486.6666666666667" y="426.16666666666663" stroke="none" fill="hsl(261, 60%, 38%)" rx="0.5" transform="rotate(45, 500, 426.66666666666663)"></rect><rect width="1" height="26.666666666666668" x="499.5" y="413.3333333333333" stroke="none" fill="hsl(261, 60%, 38%)" rx="0.5" transform="rotate(45, 500, 426.66666666666663)"></rect><rect width="26.666666666666668" height="1" x="586.6666666666666" y="426.16666666666663" stroke="none" fill="hsl(261, 60%, 38%)" rx="0.5" transform="rotate(45, 600, 426.66666666666663)"></rect><rect width="1" height="26.666666666666668" x="599.5" y="413.3333333333333" stroke="none" fill="hsl(261, 60%, 38%)" rx="0.5" transform="rotate(45, 600, 426.66666666666663)"></rect><rect width="26.666666666666668" height="1" x="686.6666666666666" y="426.16666666666663" stroke="none" fill="hsl(261, 60%, 38%)" rx="0.5" transform="rotate(45, 700, 426.66666666666663)"></rect><rect width="1" height="26.666666666666668" x="699.5" y="413.3333333333333" stroke="none" fill="hsl(261, 60%, 38%)" rx="0.5" transform="rotate(45, 700, 426.66666666666663)"></rect><rect width="26.666666666666668" height="1" x="786.6666666666666" y="426.16666666666663" stroke="none" fill="hsl(261, 60%, 38%)" rx="0.5" transform="rotate(45, 800, 426.66666666666663)"></rect><rect width="1" height="26.666666666666668" x="799.5" y="413.3333333333333" stroke="none" fill="hsl(261, 60%, 38%)" rx="0.5" transform="rotate(45, 800, 426.66666666666663)"></rect><rect width="26.666666666666668" height="1" x="-13.333333333333334" y="479.49999999999994" stroke="none" fill="hsl(261, 60%, 38%)" rx="0.5" transform="rotate(45, 0, 479.99999999999994)"></rect><rect width="1" height="26.666666666666668" x="-0.5" y="466.66666666666663" stroke="none" fill="hsl(261, 60%, 38%)" rx="0.5" transform="rotate(45, 0, 479.99999999999994)"></rect><rect width="26.666666666666668" height="1" x="86.66666666666667" y="479.49999999999994" stroke="none" fill="hsl(261, 60%, 38%)" rx="0.5" transform="rotate(45, 100, 479.99999999999994)"></rect><rect width="1" height="26.666666666666668" x="99.5" y="466.66666666666663" stroke="none" fill="hsl(261, 60%, 38%)" rx="0.5" transform="rotate(45, 100, 479.99999999999994)"></rect><rect width="26.666666666666668" height="1" x="186.66666666666666" y="479.49999999999994" stroke="none" fill="hsl(261, 60%, 38%)" rx="0.5" transform="rotate(45, 200, 479.99999999999994)"></rect><rect width="1" height="26.666666666666668" x="199.5" y="466.66666666666663" stroke="none" fill="hsl(261, 60%, 38%)" rx="0.5" transform="rotate(45, 200, 479.99999999999994)"></rect><rect width="26.666666666666668" height="1" x="286.6666666666667" y="479.49999999999994" stroke="none" fill="hsl(261, 60%, 38%)" rx="0.5" transform="rotate(45, 300, 479.99999999999994)"></rect><rect width="1" height="26.666666666666668" x="299.5" y="466.66666666666663" stroke="none" fill="hsl(261, 60%, 38%)" rx="0.5" transform="rotate(45, 300, 479.99999999999994)"></rect><rect width="26.666666666666668" height="1" x="386.6666666666667" y="479.49999999999994" stroke="none" fill="hsl(261, 60%, 38%)" rx="0.5" transform="rotate(45, 400, 479.99999999999994)"></rect><rect width="1" height="26.666666666666668" x="399.5" y="466.66666666666663" stroke="none" fill="hsl(261, 60%, 38%)" rx="0.5" transform="rotate(45, 400, 479.99999999999994)"></rect><rect width="26.666666666666668" height="1" x="486.6666666666667" y="479.49999999999994" stroke="none" fill="hsl(261, 60%, 38%)" rx="0.5" transform="rotate(45, 500, 479.99999999999994)"></rect><rect width="1" height="26.666666666666668" x="499.5" y="466.66666666666663" stroke="none" fill="hsl(261, 60%, 38%)" rx="0.5" transform="rotate(45, 500, 479.99999999999994)"></rect><rect width="26.666666666666668" height="1" x="586.6666666666666" y="479.49999999999994" stroke="none" fill="hsl(261, 60%, 38%)" rx="0.5" transform="rotate(45, 600, 479.99999999999994)"></rect><rect width="1" height="26.666666666666668" x="599.5" y="466.66666666666663" stroke="none" fill="hsl(261, 60%, 38%)" rx="0.5" transform="rotate(45, 600, 479.99999999999994)"></rect><rect width="26.666666666666668" height="1" x="686.6666666666666" y="479.49999999999994" stroke="none" fill="hsl(261, 60%, 38%)" rx="0.5" transform="rotate(45, 700, 479.99999999999994)"></rect><rect width="1" height="26.666666666666668" x="699.5" y="466.66666666666663" stroke="none" fill="hsl(261, 60%, 38%)" rx="0.5" transform="rotate(45, 700, 479.99999999999994)"></rect><rect width="26.666666666666668" height="1" x="786.6666666666666" y="479.49999999999994" stroke="none" fill="hsl(261, 60%, 38%)" rx="0.5" transform="rotate(45, 800, 479.99999999999994)"></rect><rect width="1" height="26.666666666666668" x="799.5" y="466.66666666666663" stroke="none" fill="hsl(261, 60%, 38%)" rx="0.5" transform="rotate(45, 800, 479.99999999999994)"></rect><rect width="26.666666666666668" height="1" x="-13.333333333333334" y="532.8333333333333" stroke="none" fill="hsl(261, 60%, 38%)" rx="0.5" transform="rotate(45, 0, 533.3333333333333)"></rect><rect width="1" height="26.666666666666668" x="-0.5" y="519.9999999999999" stroke="none" fill="hsl(261, 60%, 38%)" rx="0.5" transform="rotate(45, 0, 533.3333333333333)"></rect><rect width="26.666666666666668" height="1" x="86.66666666666667" y="532.8333333333333" stroke="none" fill="hsl(261, 60%, 38%)" rx="0.5" transform="rotate(45, 100, 533.3333333333333)"></rect><rect width="1" height="26.666666666666668" x="99.5" y="519.9999999999999" stroke="none" fill="hsl(261, 60%, 38%)" rx="0.5" transform="rotate(45, 100, 533.3333333333333)"></rect><rect width="26.666666666666668" height="1" x="186.66666666666666" y="532.8333333333333" stroke="none" fill="hsl(261, 60%, 38%)" rx="0.5" transform="rotate(45, 200, 533.3333333333333)"></rect><rect width="1" height="26.666666666666668" x="199.5" y="519.9999999999999" stroke="none" fill="hsl(261, 60%, 38%)" rx="0.5" transform="rotate(45, 200, 533.3333333333333)"></rect><rect width="26.666666666666668" height="1" x="286.6666666666667" y="532.8333333333333" stroke="none" fill="hsl(261, 60%, 38%)" rx="0.5" transform="rotate(45, 300, 533.3333333333333)"></rect><rect width="1" height="26.666666666666668" x="299.5" y="519.9999999999999" stroke="none" fill="hsl(261, 60%, 38%)" rx="0.5" transform="rotate(45, 300, 533.3333333333333)"></rect><rect width="26.666666666666668" height="1" x="386.6666666666667" y="532.8333333333333" stroke="none" fill="hsl(261, 60%, 38%)" rx="0.5" transform="rotate(45, 400, 533.3333333333333)"></rect><rect width="1" height="26.666666666666668" x="399.5" y="519.9999999999999" stroke="none" fill="hsl(261, 60%, 38%)" rx="0.5" transform="rotate(45, 400, 533.3333333333333)"></rect><rect width="26.666666666666668" height="1" x="486.6666666666667" y="532.8333333333333" stroke="none" fill="hsl(261, 60%, 38%)" rx="0.5" transform="rotate(45, 500, 533.3333333333333)"></rect><rect width="1" height="26.666666666666668" x="499.5" y="519.9999999999999" stroke="none" fill="hsl(261, 60%, 38%)" rx="0.5" transform="rotate(45, 500, 533.3333333333333)"></rect><rect width="26.666666666666668" height="1" x="586.6666666666666" y="532.8333333333333" stroke="none" fill="hsl(261, 60%, 38%)" rx="0.5" transform="rotate(45, 600, 533.3333333333333)"></rect><rect width="1" height="26.666666666666668" x="599.5" y="519.9999999999999" stroke="none" fill="hsl(261, 60%, 38%)" rx="0.5" transform="rotate(45, 600, 533.3333333333333)"></rect><rect width="26.666666666666668" height="1" x="686.6666666666666" y="532.8333333333333" stroke="none" fill="hsl(261, 60%, 38%)" rx="0.5" transform="rotate(45, 700, 533.3333333333333)"></rect><rect width="1" height="26.666666666666668" x="699.5" y="519.9999999999999" stroke="none" fill="hsl(261, 60%, 38%)" rx="0.5" transform="rotate(45, 700, 533.3333333333333)"></rect><rect width="26.666666666666668" height="1" x="786.6666666666666" y="532.8333333333333" stroke="none" fill="hsl(261, 60%, 38%)" rx="0.5" transform="rotate(45, 800, 533.3333333333333)"></rect><rect width="1" height="26.666666666666668" x="799.5" y="519.9999999999999" stroke="none" fill="hsl(261, 60%, 38%)" rx="0.5" transform="rotate(45, 800, 533.3333333333333)"></rect><rect width="26.666666666666668" height="1" x="-13.333333333333334" y="586.1666666666666" stroke="none" fill="hsl(261, 60%, 38%)" rx="0.5" transform="rotate(45, 0, 586.6666666666666)"></rect><rect width="1" height="26.666666666666668" x="-0.5" y="573.3333333333333" stroke="none" fill="hsl(261, 60%, 38%)" rx="0.5" transform="rotate(45, 0, 586.6666666666666)"></rect><rect width="26.666666666666668" height="1" x="86.66666666666667" y="586.1666666666666" stroke="none" fill="hsl(261, 60%, 38%)" rx="0.5" transform="rotate(45, 100, 586.6666666666666)"></rect><rect width="1" height="26.666666666666668" x="99.5" y="573.3333333333333" stroke="none" fill="hsl(261, 60%, 38%)" rx="0.5" transform="rotate(45, 100, 586.6666666666666)"></rect><rect width="26.666666666666668" height="1" x="186.66666666666666" y="586.1666666666666" stroke="none" fill="hsl(261, 60%, 38%)" rx="0.5" transform="rotate(45, 200, 586.6666666666666)"></rect><rect width="1" height="26.666666666666668" x="199.5" y="573.3333333333333" stroke="none" fill="hsl(261, 60%, 38%)" rx="0.5" transform="rotate(45, 200, 586.6666666666666)"></rect><rect width="26.666666666666668" height="1" x="286.6666666666667" y="586.1666666666666" stroke="none" fill="hsl(261, 60%, 38%)" rx="0.5" transform="rotate(45, 300, 586.6666666666666)"></rect><rect width="1" height="26.666666666666668" x="299.5" y="573.3333333333333" stroke="none" fill="hsl(261, 60%, 38%)" rx="0.5" transform="rotate(45, 300, 586.6666666666666)"></rect><rect width="26.666666666666668" height="1" x="386.6666666666667" y="586.1666666666666" stroke="none" fill="hsl(261, 60%, 38%)" rx="0.5" transform="rotate(45, 400, 586.6666666666666)"></rect><rect width="1" height="26.666666666666668" x="399.5" y="573.3333333333333" stroke="none" fill="hsl(261, 60%, 38%)" rx="0.5" transform="rotate(45, 400, 586.6666666666666)"></rect><rect width="26.666666666666668" height="1" x="486.6666666666667" y="586.1666666666666" stroke="none" fill="hsl(261, 60%, 38%)" rx="0.5" transform="rotate(45, 500, 586.6666666666666)"></rect><rect width="1" height="26.666666666666668" x="499.5" y="573.3333333333333" stroke="none" fill="hsl(261, 60%, 38%)" rx="0.5" transform="rotate(45, 500, 586.6666666666666)"></rect><rect width="26.666666666666668" height="1" x="586.6666666666666" y="586.1666666666666" stroke="none" fill="hsl(261, 60%, 38%)" rx="0.5" transform="rotate(45, 600, 586.6666666666666)"></rect><rect width="1" height="26.666666666666668" x="599.5" y="573.3333333333333" stroke="none" fill="hsl(261, 60%, 38%)" rx="0.5" transform="rotate(45, 600, 586.6666666666666)"></rect><rect width="26.666666666666668" height="1" x="686.6666666666666" y="586.1666666666666" stroke="none" fill="hsl(261, 60%, 38%)" rx="0.5" transform="rotate(45, 700, 586.6666666666666)"></rect><rect width="1" height="26.666666666666668" x="699.5" y="573.3333333333333" stroke="none" fill="hsl(261, 60%, 38%)" rx="0.5" transform="rotate(45, 700, 586.6666666666666)"></rect><rect width="26.666666666666668" height="1" x="786.6666666666666" y="586.1666666666666" stroke="none" fill="hsl(261, 60%, 38%)" rx="0.5" transform="rotate(45, 800, 586.6666666666666)"></rect><rect width="1" height="26.666666666666668" x="799.5" y="573.3333333333333" stroke="none" fill="hsl(261, 60%, 38%)" rx="0.5" transform="rotate(45, 800, 586.6666666666666)"></rect><rect width="26.666666666666668" height="1" x="-13.333333333333334" y="639.5" stroke="none" fill="hsl(261, 60%, 38%)" rx="0.5" transform="rotate(45, 0, 640)"></rect><rect width="1" height="26.666666666666668" x="-0.5" y="626.6666666666666" stroke="none" fill="hsl(261, 60%, 38%)" rx="0.5" transform="rotate(45, 0, 640)"></rect><rect width="26.666666666666668" height="1" x="86.66666666666667" y="639.5" stroke="none" fill="hsl(261, 60%, 38%)" rx="0.5" transform="rotate(45, 100, 640)"></rect><rect width="1" height="26.666666666666668" x="99.5" y="626.6666666666666" stroke="none" fill="hsl(261, 60%, 38%)" rx="0.5" transform="rotate(45, 100, 640)"></rect><rect width="26.666666666666668" height="1" x="186.66666666666666" y="639.5" stroke="none" fill="hsl(261, 60%, 38%)" rx="0.5" transform="rotate(45, 200, 640)"></rect><rect width="1" height="26.666666666666668" x="199.5" y="626.6666666666666" stroke="none" fill="hsl(261, 60%, 38%)" rx="0.5" transform="rotate(45, 200, 640)"></rect><rect width="26.666666666666668" height="1" x="286.6666666666667" y="639.5" stroke="none" fill="hsl(261, 60%, 38%)" rx="0.5" transform="rotate(45, 300, 640)"></rect><rect width="1" height="26.666666666666668" x="299.5" y="626.6666666666666" stroke="none" fill="hsl(261, 60%, 38%)" rx="0.5" transform="rotate(45, 300, 640)"></rect><rect width="26.666666666666668" height="1" x="386.6666666666667" y="639.5" stroke="none" fill="hsl(261, 60%, 38%)" rx="0.5" transform="rotate(45, 400, 640)"></rect><rect width="1" height="26.666666666666668" x="399.5" y="626.6666666666666" stroke="none" fill="hsl(261, 60%, 38%)" rx="0.5" transform="rotate(45, 400, 640)"></rect><rect width="26.666666666666668" height="1" x="486.6666666666667" y="639.5" stroke="none" fill="hsl(261, 60%, 38%)" rx="0.5" transform="rotate(45, 500, 640)"></rect><rect width="1" height="26.666666666666668" x="499.5" y="626.6666666666666" stroke="none" fill="hsl(261, 60%, 38%)" rx="0.5" transform="rotate(45, 500, 640)"></rect><rect width="26.666666666666668" height="1" x="586.6666666666666" y="639.5" stroke="none" fill="hsl(261, 60%, 38%)" rx="0.5" transform="rotate(45, 600, 640)"></rect><rect width="1" height="26.666666666666668" x="599.5" y="626.6666666666666" stroke="none" fill="hsl(261, 60%, 38%)" rx="0.5" transform="rotate(45, 600, 640)"></rect><rect width="26.666666666666668" height="1" x="686.6666666666666" y="639.5" stroke="none" fill="hsl(261, 60%, 38%)" rx="0.5" transform="rotate(45, 700, 640)"></rect><rect width="1" height="26.666666666666668" x="699.5" y="626.6666666666666" stroke="none" fill="hsl(261, 60%, 38%)" rx="0.5" transform="rotate(45, 700, 640)"></rect><rect width="26.666666666666668" height="1" x="786.6666666666666" y="639.5" stroke="none" fill="hsl(261, 60%, 38%)" rx="0.5" transform="rotate(45, 800, 640)"></rect><rect width="1" height="26.666666666666668" x="799.5" y="626.6666666666666" stroke="none" fill="hsl(261, 60%, 38%)" rx="0.5" transform="rotate(45, 800, 640)"></rect><rect width="26.666666666666668" height="1" x="-13.333333333333334" y="692.8333333333334" stroke="none" fill="hsl(261, 60%, 38%)" rx="0.5" transform="rotate(45, 0, 693.3333333333334)"></rect><rect width="1" height="26.666666666666668" x="-0.5" y="680" stroke="none" fill="hsl(261, 60%, 38%)" rx="0.5" transform="rotate(45, 0, 693.3333333333334)"></rect><rect width="26.666666666666668" height="1" x="86.66666666666667" y="692.8333333333334" stroke="none" fill="hsl(261, 60%, 38%)" rx="0.5" transform="rotate(45, 100, 693.3333333333334)"></rect><rect width="1" height="26.666666666666668" x="99.5" y="680" stroke="none" fill="hsl(261, 60%, 38%)" rx="0.5" transform="rotate(45, 100, 693.3333333333334)"></rect><rect width="26.666666666666668" height="1" x="186.66666666666666" y="692.8333333333334" stroke="none" fill="hsl(261, 60%, 38%)" rx="0.5" transform="rotate(45, 200, 693.3333333333334)"></rect><rect width="1" height="26.666666666666668" x="199.5" y="680" stroke="none" fill="hsl(261, 60%, 38%)" rx="0.5" transform="rotate(45, 200, 693.3333333333334)"></rect><rect width="26.666666666666668" height="1" x="286.6666666666667" y="692.8333333333334" stroke="none" fill="hsl(261, 60%, 38%)" rx="0.5" transform="rotate(45, 300, 693.3333333333334)"></rect><rect width="1" height="26.666666666666668" x="299.5" y="680" stroke="none" fill="hsl(261, 60%, 38%)" rx="0.5" transform="rotate(45, 300, 693.3333333333334)"></rect><rect width="26.666666666666668" height="1" x="386.6666666666667" y="692.8333333333334" stroke="none" fill="hsl(261, 60%, 38%)" rx="0.5" transform="rotate(45, 400, 693.3333333333334)"></rect><rect width="1" height="26.666666666666668" x="399.5" y="680" stroke="none" fill="hsl(261, 60%, 38%)" rx="0.5" transform="rotate(45, 400, 693.3333333333334)"></rect><rect width="26.666666666666668" height="1" x="486.6666666666667" y="692.8333333333334" stroke="none" fill="hsl(261, 60%, 38%)" rx="0.5" transform="rotate(45, 500, 693.3333333333334)"></rect><rect width="1" height="26.666666666666668" x="499.5" y="680" stroke="none" fill="hsl(261, 60%, 38%)" rx="0.5" transform="rotate(45, 500, 693.3333333333334)"></rect><rect width="26.666666666666668" height="1" x="586.6666666666666" y="692.8333333333334" stroke="none" fill="hsl(261, 60%, 38%)" rx="0.5" transform="rotate(45, 600, 693.3333333333334)"></rect><rect width="1" height="26.666666666666668" x="599.5" y="680" stroke="none" fill="hsl(261, 60%, 38%)" rx="0.5" transform="rotate(45, 600, 693.3333333333334)"></rect><rect width="26.666666666666668" height="1" x="686.6666666666666" y="692.8333333333334" stroke="none" fill="hsl(261, 60%, 38%)" rx="0.5" transform="rotate(45, 700, 693.3333333333334)"></rect><rect width="1" height="26.666666666666668" x="699.5" y="680" stroke="none" fill="hsl(261, 60%, 38%)" rx="0.5" transform="rotate(45, 700, 693.3333333333334)"></rect><rect width="26.666666666666668" height="1" x="786.6666666666666" y="692.8333333333334" stroke="none" fill="hsl(261, 60%, 38%)" rx="0.5" transform="rotate(45, 800, 693.3333333333334)"></rect><rect width="1" height="26.666666666666668" x="799.5" y="680" stroke="none" fill="hsl(261, 60%, 38%)" rx="0.5" transform="rotate(45, 800, 693.3333333333334)"></rect><rect width="26.666666666666668" height="1" x="-13.333333333333334" y="746.1666666666667" stroke="none" fill="hsl(261, 60%, 38%)" rx="0.5" transform="rotate(45, 0, 746.6666666666667)"></rect><rect width="1" height="26.666666666666668" x="-0.5" y="733.3333333333334" stroke="none" fill="hsl(261, 60%, 38%)" rx="0.5" transform="rotate(45, 0, 746.6666666666667)"></rect><rect width="26.666666666666668" height="1" x="86.66666666666667" y="746.1666666666667" stroke="none" fill="hsl(261, 60%, 38%)" rx="0.5" transform="rotate(45, 100, 746.6666666666667)"></rect><rect width="1" height="26.666666666666668" x="99.5" y="733.3333333333334" stroke="none" fill="hsl(261, 60%, 38%)" rx="0.5" transform="rotate(45, 100, 746.6666666666667)"></rect><rect width="26.666666666666668" height="1" x="186.66666666666666" y="746.1666666666667" stroke="none" fill="hsl(261, 60%, 38%)" rx="0.5" transform="rotate(45, 200, 746.6666666666667)"></rect><rect width="1" height="26.666666666666668" x="199.5" y="733.3333333333334" stroke="none" fill="hsl(261, 60%, 38%)" rx="0.5" transform="rotate(45, 200, 746.6666666666667)"></rect><rect width="26.666666666666668" height="1" x="286.6666666666667" y="746.1666666666667" stroke="none" fill="hsl(261, 60%, 38%)" rx="0.5" transform="rotate(45, 300, 746.6666666666667)"></rect><rect width="1" height="26.666666666666668" x="299.5" y="733.3333333333334" stroke="none" fill="hsl(261, 60%, 38%)" rx="0.5" transform="rotate(45, 300, 746.6666666666667)"></rect><rect width="26.666666666666668" height="1" x="386.6666666666667" y="746.1666666666667" stroke="none" fill="hsl(261, 60%, 38%)" rx="0.5" transform="rotate(45, 400, 746.6666666666667)"></rect><rect width="1" height="26.666666666666668" x="399.5" y="733.3333333333334" stroke="none" fill="hsl(261, 60%, 38%)" rx="0.5" transform="rotate(45, 400, 746.6666666666667)"></rect><rect width="26.666666666666668" height="1" x="486.6666666666667" y="746.1666666666667" stroke="none" fill="hsl(261, 60%, 38%)" rx="0.5" transform="rotate(45, 500, 746.6666666666667)"></rect><rect width="1" height="26.666666666666668" x="499.5" y="733.3333333333334" stroke="none" fill="hsl(261, 60%, 38%)" rx="0.5" transform="rotate(45, 500, 746.6666666666667)"></rect><rect width="26.666666666666668" height="1" x="586.6666666666666" y="746.1666666666667" stroke="none" fill="hsl(261, 60%, 38%)" rx="0.5" transform="rotate(45, 600, 746.6666666666667)"></rect><rect width="1" height="26.666666666666668" x="599.5" y="733.3333333333334" stroke="none" fill="hsl(261, 60%, 38%)" rx="0.5" transform="rotate(45, 600, 746.6666666666667)"></rect><rect width="26.666666666666668" height="1" x="686.6666666666666" y="746.1666666666667" stroke="none" fill="hsl(261, 60%, 38%)" rx="0.5" transform="rotate(45, 700, 746.6666666666667)"></rect><rect width="1" height="26.666666666666668" x="699.5" y="733.3333333333334" stroke="none" fill="hsl(261, 60%, 38%)" rx="0.5" transform="rotate(45, 700, 746.6666666666667)"></rect><rect width="26.666666666666668" height="1" x="786.6666666666666" y="746.1666666666667" stroke="none" fill="hsl(261, 60%, 38%)" rx="0.5" transform="rotate(45, 800, 746.6666666666667)"></rect><rect width="1" height="26.666666666666668" x="799.5" y="733.3333333333334" stroke="none" fill="hsl(261, 60%, 38%)" rx="0.5" transform="rotate(45, 800, 746.6666666666667)"></rect><rect width="26.666666666666668" height="1" x="-13.333333333333334" y="799.5000000000001" stroke="none" fill="hsl(261, 60%, 38%)" rx="0.5" transform="rotate(45, 0, 800.0000000000001)"></rect><rect width="1" height="26.666666666666668" x="-0.5" y="786.6666666666667" stroke="none" fill="hsl(261, 60%, 38%)" rx="0.5" transform="rotate(45, 0, 800.0000000000001)"></rect><rect width="26.666666666666668" height="1" x="86.66666666666667" y="799.5000000000001" stroke="none" fill="hsl(261, 60%, 38%)" rx="0.5" transform="rotate(45, 100, 800.0000000000001)"></rect><rect width="1" height="26.666666666666668" x="99.5" y="786.6666666666667" stroke="none" fill="hsl(261, 60%, 38%)" rx="0.5" transform="rotate(45, 100, 800.0000000000001)"></rect><rect width="26.666666666666668" height="1" x="186.66666666666666" y="799.5000000000001" stroke="none" fill="hsl(261, 60%, 38%)" rx="0.5" transform="rotate(45, 200, 800.0000000000001)"></rect><rect width="1" height="26.666666666666668" x="199.5" y="786.6666666666667" stroke="none" fill="hsl(261, 60%, 38%)" rx="0.5" transform="rotate(45, 200, 800.0000000000001)"></rect><rect width="26.666666666666668" height="1" x="286.6666666666667" y="799.5000000000001" stroke="none" fill="hsl(261, 60%, 38%)" rx="0.5" transform="rotate(45, 300, 800.0000000000001)"></rect><rect width="1" height="26.666666666666668" x="299.5" y="786.6666666666667" stroke="none" fill="hsl(261, 60%, 38%)" rx="0.5" transform="rotate(45, 300, 800.0000000000001)"></rect><rect width="26.666666666666668" height="1" x="386.6666666666667" y="799.5000000000001" stroke="none" fill="hsl(261, 60%, 38%)" rx="0.5" transform="rotate(45, 400, 800.0000000000001)"></rect><rect width="1" height="26.666666666666668" x="399.5" y="786.6666666666667" stroke="none" fill="hsl(261, 60%, 38%)" rx="0.5" transform="rotate(45, 400, 800.0000000000001)"></rect><rect width="26.666666666666668" height="1" x="486.6666666666667" y="799.5000000000001" stroke="none" fill="hsl(261, 60%, 38%)" rx="0.5" transform="rotate(45, 500, 800.0000000000001)"></rect><rect width="1" height="26.666666666666668" x="499.5" y="786.6666666666667" stroke="none" fill="hsl(261, 60%, 38%)" rx="0.5" transform="rotate(45, 500, 800.0000000000001)"></rect><rect width="26.666666666666668" height="1" x="586.6666666666666" y="799.5000000000001" stroke="none" fill="hsl(261, 60%, 38%)" rx="0.5" transform="rotate(45, 600, 800.0000000000001)"></rect><rect width="1" height="26.666666666666668" x="599.5" y="786.6666666666667" stroke="none" fill="hsl(261, 60%, 38%)" rx="0.5" transform="rotate(45, 600, 800.0000000000001)"></rect><rect width="26.666666666666668" height="1" x="686.6666666666666" y="799.5000000000001" stroke="none" fill="hsl(261, 60%, 38%)" rx="0.5" transform="rotate(45, 700, 800.0000000000001)"></rect><rect width="1" height="26.666666666666668" x="699.5" y="786.6666666666667" stroke="none" fill="hsl(261, 60%, 38%)" rx="0.5" transform="rotate(45, 700, 800.0000000000001)"></rect><rect width="26.666666666666668" height="1" x="786.6666666666666" y="799.5000000000001" stroke="none" fill="hsl(261, 60%, 38%)" rx="0.5" transform="rotate(45, 800, 800.0000000000001)"></rect><rect width="1" height="26.666666666666668" x="799.5" y="786.6666666666667" stroke="none" fill="hsl(261, 60%, 38%)" rx="0.5" transform="rotate(45, 800, 800.0000000000001)"></rect></g></svg>